<svg id="Calque_1" data-name="Calque 1" xmlns="http://www.w3.org/2000/svg" xmlns:xlink="http://www.w3.org/1999/xlink" viewBox="0 0 512 512"><defs><style>.cls-1{fill:url(#Dégradé_sans_nom_13);}.cls-2{fill:#e10a17;}.cls-3{fill:#fff;}.cls-4{fill:#e30613;}</style><radialGradient id="Dégradé_sans_nom_13" cx="33.38" cy="33.38" r="33.38" gradientTransform="scale(7.67 7.67)" gradientUnits="userSpaceOnUse"><stop offset="0" stop-color="#6b1e0f"/><stop offset="0.32" stop-color="#671c0d"/><stop offset="0.65" stop-color="#5a1808"/><stop offset="1" stop-color="#451000"/><stop offset="1" stop-color="#451000"/></radialGradient></defs><title>Logo-app-extensions-launch</title><rect class="cls-1" width="512" height="512"/><rect class="cls-2" x="139.87" y="93.93" width="92.6" height="304.57" rx="42.45" ry="42.45"/><path class="cls-3" d="M363.42,343.65H254.09v16.89a42.52,42.52,0,0,1-23.3,37.81H363.42a27.35,27.35,0,0,0,0-54.7Z"/><path class="cls-4" d="M324.24,142.81a29.82,29.82,0,0,0-55.14-1.15L254,177.13V195.7l21.79-51.15a22.58,22.58,0,0,1,41.35,18.17L254,306.45v18.1l69.8-158.9A29.65,29.65,0,0,0,324.24,142.81Z"/><path class="cls-3" d="M186.55,259.61l-4,3.13c-1.72,1.36-6.08,4.95-6.08,4.95a18.41,18.41,0,0,0,.41,1.93c.79,2.93,1.28,5.09,2.09,8.35,2.3-1.91,8.21-6.5,8.21-6.5Z"/><path class="cls-3" d="M169.13,244.1l-2.77,4.22c-1.19,1.84-4.38,6.5-4.38,6.5s-1-.07-2-.24c-3-.53-5.19-.82-8.51-1.33,1.7-2.47,5.75-8.76,5.75-8.76Z"/><path class="cls-3" d="M207.57,237.52c5.58-7.73,7.06-16.44,7.05-26l-5.53.92a41.64,41.64,0,0,0-18.87,8,53.77,53.77,0,0,0-8.75,9.14c-3.11,4-5.78,8.25-8.6,12.43q-5.94,8.81-11.79,17.68a2,2,0,0,0,0,1.75,22.76,22.76,0,0,0,7.63,7.58c1.9,1.17,1.9,1.12,3.64-.32,6.49-5.35,12.9-10.8,19.52-16C197.65,248.23,203.2,243.56,207.57,237.52Zm-15.79-.93a5.14,5.14,0,0,1-.31-7.41,5.44,5.44,0,0,1,7.5-.34,5.26,5.26,0,0,1,.43,7.43l0,0A5.5,5.5,0,0,1,191.78,236.59Z"/></svg>