<svg id="Layer_1" data-name="Layer 1" xmlns="http://www.w3.org/2000/svg" xmlns:xlink="http://www.w3.org/1999/xlink" viewBox="0 0 1029.196 1029.196"><defs><style>.cls-1{fill:#231f20;}.cls-2{opacity:0.05;}.cls-3,.cls-5,.cls-6{fill:none;stroke-miterlimit:10;}.cls-3{stroke:#7b9f3e;stroke-width:40.918px;}.cls-4{fill:#d4e59f;}.cls-5,.cls-6{stroke:#d4e59f;}.cls-5{stroke-width:10.025px;}.cls-6{stroke-width:9.83px;}.cls-7{fill:url(#New_Gradient_Swatch);}.cls-8{fill:url(#New_Gradient_Swatch-2);}.cls-9{fill:url(#New_Gradient_Swatch-3);}.cls-10{fill:#5293cf;}.cls-11{fill:url(#linear-gradient);}</style><linearGradient id="New_Gradient_Swatch" x1="489.581" y1="689.477" x2="385.81" y2="689.477" gradientTransform="translate(7.67 -1.132) rotate(0.41)" gradientUnits="userSpaceOnUse"><stop offset="0" stop-color="#d4a92a"/><stop offset="0.503" stop-color="#f79520"/><stop offset="1" stop-color="#f68a28"/></linearGradient><linearGradient id="New_Gradient_Swatch-2" x1="374.165" y1="476.441" x2="204.184" y2="476.441" xlink:href="#New_Gradient_Swatch"/><linearGradient id="New_Gradient_Swatch-3" x1="832.215" y1="468.447" x2="267.65" y2="468.447" xlink:href="#New_Gradient_Swatch"/><linearGradient id="linear-gradient" x1="71.738" y1="823.171" x2="205.2" y2="592.006" gradientUnits="userSpaceOnUse"><stop offset="0.251" stop-color="#00bbcb"/><stop offset="1" stop-color="#f79520"/></linearGradient></defs><title>launch-icon-reactor</title><circle class="cls-1" cx="514.598" cy="514.598" r="511.944"/><g class="cls-2"><circle class="cls-3" cx="514.598" cy="514.598" r="494.139"/><circle class="cls-4" cx="580.549" cy="630.144" r="21.164"/><circle class="cls-4" cx="647.407" cy="514.405" r="21.164"/><circle class="cls-4" cx="629.718" cy="581.014" r="21.164"/><circle class="cls-4" cx="447.829" cy="630.146" r="21.164"/><circle class="cls-4" cx="514.189" cy="647.827" r="21.164"/><circle class="cls-4" cx="629.718" cy="447.704" r="21.164"/><circle class="cls-4" cx="399.733" cy="447.704" r="21.164"/><circle class="cls-4" cx="399.743" cy="581.014" r="21.164"/><circle class="cls-4" cx="580.716" cy="399.409" r="21.164"/><circle class="cls-4" cx="447.829" cy="399.409" r="21.164"/><circle class="cls-4" cx="514.189" cy="381.369" r="21.164"/><circle class="cls-4" cx="381.789" cy="514.405" r="21.164"/><circle class="cls-5" cx="514.598" cy="514.598" r="66.36"/><circle class="cls-4" cx="514.598" cy="514.598" r="39.824"/><circle class="cls-6" cx="514.598" cy="514.598" r="195.575"/><path class="cls-4" d="M864.886,360.486c.243.549.478,1.089.717,1.633Q865.246,361.3,864.886,360.486Z" transform="translate(-0.402 -0.402)"/><path class="cls-4" d="M889.1,594.516a385.137,385.137,0,0,0,1.329-152.491L775.367,464.39a266.873,266.873,0,0,1-.913,105.759Z" transform="translate(-0.402 -0.402)"/><path class="cls-4" d="M386.408,283.015a263.459,263.459,0,0,1,100.868-31.788l-12.25-116.551A379.874,379.874,0,0,0,329.589,180.51Z" transform="translate(-0.402 -0.402)"/><path class="cls-4" d="M323.775,846.212A379.887,379.887,0,0,0,468.4,894.565l14.282-116.318a263.485,263.485,0,0,1-100.3-33.535Z" transform="translate(-0.402 -0.402)"/><path class="cls-4" d="M643.592,746.985a263.459,263.459,0,0,1-100.868,31.788l12.25,116.551A379.874,379.874,0,0,0,700.411,849.49Z" transform="translate(-0.402 -0.402)"/><path class="cls-4" d="M274.6,402.9a266,266,0,0,1,62.948-84.982l-78.41-87.083a383.532,383.532,0,0,0-90.762,122.532Z" transform="translate(-0.402 -0.402)"/><path class="cls-4" d="M755.4,627.1a266,266,0,0,1-62.948,84.982l78.41,87.083a383.528,383.528,0,0,0,90.762-122.532Z" transform="translate(-0.402 -0.402)"/><path class="cls-4" d="M334.138,708.95a265.836,265.836,0,0,1-61.469-86.057L165.593,670.566a383.309,383.309,0,0,0,88.63,124.083Z" transform="translate(-0.402 -0.402)"/><path class="cls-4" d="M547.323,251.753a263.485,263.485,0,0,1,100.3,33.535l58.6-101.489a379.876,379.876,0,0,0-141.862-48.041c-.913-.117-1.838-.2-2.754-.31Z" transform="translate(-0.402 -0.402)"/><path class="cls-4" d="M254.633,565.61a266.873,266.873,0,0,1,.913-105.759L140.9,435.484a384.817,384.817,0,0,0-1.317,152.489Z" transform="translate(-0.402 -0.402)"/><path class="cls-4" d="M695.862,321.049a265.866,265.866,0,0,1,61.469,86.058l107.078-47.674a383.316,383.316,0,0,0-88.628-124.087Z" transform="translate(-0.402 -0.402)"/></g><path class="cls-7" d="M492.811,621.563c-15.173,6.692-27.919,12.342-40.69,17.938-17.62,7.721-62.672,28.744-62.672,28.744s-.9,8.848-.8,17.344c.3,26.676-.314,46.2-.608,75.763,23.832-11.234,84.3-37.262,84.3-37.262" transform="translate(-0.402 -0.402)"/><path class="cls-8" d="M378.613,450.959c-12.269,11.156-22.6,20.517-32.9,29.922-14.2,12.975-51.687,45.632-51.687,45.632s-8.454-2.765-16.18-6.3c-24.261-11.094-42.355-18.445-69.5-30.165,19.933-17.23,68.245-61.951,68.245-61.951" transform="translate(-0.402 -0.402)"/><path class="cls-9" d="M720.545,479.744c64.648-53.551,96.4-124.5,117.393-205.662-17.823-1.559-33.515-3-49.218-4.292-61.551-5.067-122.057,2.08-178.378,26.648-33.724,14.711-65.209,36.176-94.695,58.564-35.253,26.767-67.456,57.58-100.693,86.965Q344.889,503.91,275.494,566.6c-3.269,2.964-5.2,10.6-3.9,14.895,9.355,30.972,25.8,58.049,48.221,81.359,13.64,14.183,13.717,13.706,31.72,5.31,67.094-31.293,133.764-63.573,201.59-93.2C612.432,549.059,670.052,521.572,720.545,479.744ZM588.077,436.967c-14.239-21.887-8.218-49.793,13.769-63.81,21.156-13.488,50.786-7.248,64.654,13.617a46.364,46.364,0,0,1-12.932,64.42C632.723,464.979,601.953,458.3,588.077,436.967Z" transform="translate(-0.402 -0.402)"/><path class="cls-10" d="M56.771,286.571C-21.864,444.685-16.494,639.232,87.845,797.179c95,143.813,250.11,224.076,410.181,229.522C-36.753,820.526,56.177,289.928,56.771,286.571Z" transform="translate(-0.402 -0.402)"/><path class="cls-11" d="M282.247,665.377c-13.921-18.825-25.852-43.814-25.852-43.814C125.01,685.475,32.026,685.132,32.026,685.132s18.628,75.86,105.938,176.275C121.669,742.407,282.247,665.377,282.247,665.377Z" transform="translate(-0.402 -0.402)"/></svg>